<?xml version="1.0" encoding="UTF-8" standalone="no"?>
<svg
   xmlns:dc="http://purl.org/dc/elements/1.1/"
   xmlns:cc="http://creativecommons.org/ns#"
   xmlns:rdf="http://www.w3.org/1999/02/22-rdf-syntax-ns#"
   xmlns:svg="http://www.w3.org/2000/svg"
   xmlns="http://www.w3.org/2000/svg"
   xmlns:sodipodi="http://sodipodi.sourceforge.net/DTD/sodipodi-0.dtd"
   xmlns:inkscape="http://www.inkscape.org/namespaces/inkscape"
   viewBox="0 0 32 32"
   version="1.1"
   id="svg856"
   sodipodi:docname="folder_type_subtree.svg"
   inkscape:version="1.0.2 (e86c8708, 2021-01-15)">
  <metadata
     id="metadata862">
    <rdf:RDF>
      <cc:Work
         rdf:about="">
        <dc:format>image/svg+xml</dc:format>
        <dc:type
           rdf:resource="http://purl.org/dc/dcmitype/StillImage" />
      </cc:Work>
    </rdf:RDF>
  </metadata>
  <defs
     id="defs860" />
  <sodipodi:namedview
     pagecolor="#ffffff"
     bordercolor="#666666"
     borderopacity="1"
     objecttolerance="10"
     gridtolerance="10"
     guidetolerance="10"
     inkscape:pageopacity="0"
     inkscape:pageshadow="2"
     inkscape:window-width="1301"
     inkscape:window-height="743"
     id="namedview858"
     showgrid="false"
     inkscape:zoom="10.074671"
     inkscape:cx="-3.1073237"
     inkscape:cy="16"
     inkscape:window-x="0"
     inkscape:window-y="0"
     inkscape:window-maximized="0"
     inkscape:current-layer="svg856"
     inkscape:document-rotation="0" />
  <title
     id="title846">folder_type_src</title>
  <path
     d="M27.5,5.5H18.2L16.1,9.7H4.4V26.5H29.6V5.5Zm0,4.2H19.3l1.1-2.1h7.1Z"
     style="fill:#14622a"
     id="path848" />
  <g
     id="g837"
     transform="matrix(0.1379979,0,0,0.1379979,16.758806,16.28275)"
     style="fill:#ffffff">
    <path
       class="st0"
       d="m 2.0958317,73.219452 c 1.9,-22.06 5.7,-40.18 21.5000003,-47.37 8.89,26.88 1.86,52.62 -8.49,82.379998 h 16.13 c 10.12,-47.609998 4.97,-65.059998 -1.19,-80.589998 9.73,6.12 18.4,19.33 26.7,40.27 11.65,-21.72 4.25,-37.66 -23.41,-48.02 15.82,-4.89 30.65,1.35 44.56,13.66 -7.45,-28.0700002 -28.7,-34.8700001 -47.68,-18.84 2.59,-20.11 -5.71,-24.95 -16.83,-29.36 5.23,7.9599999 9.2,16.2599999 8.6,25.8 -17.1600003,-15.75 -31.4300033,-9.9200001 -44.620003,3.95 12.6499997,-2.96 25.7400027,-4.2 36.790003,3.2 -19.8300033,-2.52 -30.930003,8.66 -37.790003,23.34 8.3,-7.6 16.1099997,-12.52 24.41000268,-13.42 -8.70000298,15.77 -4.84999998,29.71 1.32000002,45 z"
       id="path835"
       style="fill:#ffffff;fill-opacity:1" />
  </g>
</svg>
